<svg xmlns="http://www.w3.org/2000/svg" xmlns:xlink="http://www.w3.org/1999/xlink" buffered-rendering="static" viewBox="0,0,16,16" shape-rendering="crispEdges">
<desc>
This file was created by http://www.h2.dion.ne.jp/~defghi/img2svg3/dot2svg3.htm at Thu Aug 19 2021 07:02:25 GMT+0900 (日本標準時)
path count:6
</desc>
<defs>
<g id="dots">
<path d="m0,0h2v16h-2zm14,0h2v16h-2z" opacity="0"/>
<path d="m2,0h12v16h-12zm2,1h-1v14h10v-14z" fill="#bacbfe"/>
<path d="m3,1h10v11h-10zm2,2h-1v1h1zm2,0h-1v1h1zm2,0h-1v1h3v-1zm-4,2h-1v1h1zm2,0h-1v1h1zm2,0h-1v1h3v-1zm-3,3h-1v1h1zm5,0h-1v1h1zm-6,1h-1v2h1zm2,0h-1v2h1zm3,0h-1v2h1zm2,0h-1v2h1z" fill="#4cfdba"/>
<path d="m4,3h1v1h-1zm2,0h1v1h-1zm2,0h3v1h-3zm-4,2h1v1h-1zm2,0h1v1h-1zm2,0h3v1h-3zm-3,3h1v1h1v2h-1v-2h-1v2h-1v-2h1zm5,0h1v1h1v2h-1v-2h-1v2h-1v-2h1z" fill="#0139da"/>
<path d="m3,12h10v1h-10zm0,2h10v1h-10z" fill="#eacecf"/>
<path d="m3,13h10v1h-10z" fill="#f7c1c1"/>
</g>
</defs>
<use xlink:href="#dots"/>
</svg>