<svg xmlns="http://www.w3.org/2000/svg" xmlns:xlink="http://www.w3.org/1999/xlink" buffered-rendering="static" viewBox="0,0,16,16" shape-rendering="crispEdges">
<desc>
This file was created by http://www.h2.dion.ne.jp/~defghi/img2svg3/dot2svg3.htm at Thu Aug 19 2021 07:18:26 GMT+0900 (日本標準時)
path count:3
</desc>
<defs>
<g id="dots">
<path d="m0,0h16v16h-16zm10,1h-1v2h-1v1h-1v1h-2v1h-1v1h-1v1h-1v4h1v1h1v1h2v1h4v-1h2v-1h1v-1h1v-3h-1v-2h-1v-2h-1v-2h-1z" opacity="0"/>
<path d="m9,1h1v2h1v2h1v2h1v2h1v3h-1v1h-1v1h-2v1h-4v-1h-2v-1h-1v-1h-1v-4h1v-1h1v-1h1v-1h2v-1h1v-1h1zm1,2h-1v1h-1v1h-1v1h-2v1h-1v1h-1v4h1v1h2v1h4v-1h2v-1h1v-3h-1v-2h-1v-2h-1zm-4,5h1v1h-1zm3,0h1v1h-1zm-3,2h1v1h2v-1h1v1h-1v1h-2v-1h-1z"/>
<path d="m9,3h1v2h1v2h1v2h1v3h-1v1h-2v1h-4v-1h-2v-1h-1v-4h1v-1h1v-1h2v-1h1v-1h1zm-2,5h-1v1h1zm3,0h-1v1h1zm-3,2h-1v1h1zm3,0h-1v1h1zm-2,1h-1v1h2v-1z" fill="#efefef"/>
</g>
</defs>
<use xlink:href="#dots"/>
</svg>